<?xml version="1.0" standalone="no"?>
<!DOCTYPE svg PUBLIC "-//W3C//DTD SVG 20010904//EN"
 "http://www.w3.org/TR/2001/REC-SVG-20010904/DTD/svg10.dtd">
<svg version="1.0" xmlns="http://www.w3.org/2000/svg"
 width="120.000000pt" height="70.000000pt" viewBox="0 0 1200.000000 700.000000"
 preserveAspectRatio="xMidYMid meet">
<metadata>
Created by potrace 1.16, written by Peter Selinger 2001-2019
</metadata>
<g transform="translate(0.000000,700.000000) scale(0.100000,-0.100000)"
fill="#fff" stroke="none">
<path d="M1855 6873 c-84 -12 -271 -59 -388 -99 -133 -46 -357 -147 -449 -205
-28 -16 -52 -29 -53 -27 -2 2 -25 62 -53 133 l-49 130 -172 3 c-94 1 -171 1
-171 -1 0 -13 83 -193 91 -195 5 -2 9 -10 9 -17 0 -14 70 -192 124 -315 18
-41 48 -111 66 -155 45 -112 54 -132 84 -198 14 -31 26 -63 26 -70 0 -6 11
-34 25 -61 14 -27 25 -56 25 -64 0 -8 11 -37 25 -64 14 -28 24 -53 21 -55 -2
-3 3 -13 12 -23 13 -16 25 -60 15 -60 -3 0 -53 96 -55 107 0 5 -7 23 -15 41
-14 35 -33 43 -34 15 -1 -30 -27 50 -28 85 -1 32 -16 71 -95 246 -18 39 -61
137 -97 217 -35 81 -66 142 -68 137 -6 -16 -40 63 -41 93 0 14 -15 59 -33 100
-19 41 -49 111 -68 156 l-34 83 -217 0 -218 0 0 -2535 0 -2535 21 0 c22 0 945
127 992 136 l27 6 0 719 c0 395 2 719 5 719 3 0 67 -11 141 -25 74 -14 142
-25 150 -25 12 0 14 44 16 278 1 152 4 248 8 212 6 -65 6 -65 11 -20 3 25 6
-71 7 -213 2 -204 -1 -257 -10 -251 -9 5 -10 4 -3 -4 30 -31 640 -55 811 -31
248 34 461 130 614 275 l35 33 0 106 c0 57 3 97 7 87 4 -10 7 2 9 33 2 39 3
42 6 15 9 -97 15 -123 24 -109 5 8 9 42 9 77 0 48 3 62 15 62 12 0 15 -16 16
-77 1 -72 2 -75 11 -38 5 22 7 66 3 98 -5 47 -3 57 9 57 20 0 30 -40 23 -88
-4 -25 -3 -32 3 -21 9 15 15 158 20 429 1 58 4 96 7 85 2 -11 6 -27 9 -35 11
-32 24 16 24 90 0 124 13 302 20 290 10 -15 20 67 20 156 0 66 2 74 19 74 17
0 20 10 26 83 4 45 5 280 2 522 -5 471 -8 501 -62 689 -88 303 -251 513 -492
635 -159 80 -320 112 -553 109 -85 0 -168 -3 -185 -5z m80 -938 c71 -36 124
-101 151 -184 16 -51 18 -111 22 -650 3 -616 -1 -694 -38 -777 -45 -103 -144
-170 -269 -182 -83 -9 -279 2 -419 23 -112 16 -291 51 -298 58 -2 2 -4 334 -4
738 l-1 734 38 33 c55 49 206 136 296 172 144 57 209 70 342 67 111 -2 125 -5
180 -32z"/>
<path d="M4910 6874 c-19 -2 -78 -9 -130 -15 -404 -46 -719 -176 -912 -377
-151 -157 -238 -342 -290 -617 -19 -101 -21 -156 -25 -665 -5 -590 0 -760 22
-760 20 0 25 -24 35 -165 5 -71 15 -152 21 -180 6 -27 14 -75 18 -105 4 -30
11 -62 14 -70 3 -8 8 -50 11 -94 4 -69 10 -87 48 -154 50 -88 168 -218 247
-272 118 -79 244 -127 411 -156 134 -23 495 -15 666 15 147 25 314 68 454 115
58 20 108 36 113 36 4 0 7 -376 7 -835 l0 -835 22 0 c24 0 955 127 996 136
l22 4 -2 2443 -3 2442 -150 22 c-440 63 -716 84 -1165 88 -217 2 -411 1 -430
-1z m658 -910 l52 -5 0 -815 0 -815 -97 -45 c-118 -56 -270 -107 -381 -129
-120 -24 -298 -18 -369 14 -67 30 -124 91 -154 167 l-24 59 -3 520 c-3 548 3
674 38 768 66 177 213 268 460 286 106 8 380 5 478 -5z"/>
<path d="M7140 6098 c0 -392 -3 -1182 -7 -1755 l-6 -1043 569 0 569 0 535
1135 c294 624 536 1129 537 1123 5 -25 273 -2234 273 -2246 0 -9 135 -12 569
-12 l568 0 26 73 c57 160 1197 3431 1197 3434 0 2 -217 2 -482 1 l-481 -3
-341 -1010 c-316 -934 -341 -1006 -347 -965 -4 25 -58 480 -120 1012 l-114
968 -525 0 -525 0 -479 -1010 c-264 -556 -480 -1009 -481 -1008 -1 2 4 356 11
788 7 432 13 885 13 1008 l1 222 -480 0 -480 0 0 -712z"/>
<path d="M11515 3987 c-74 -20 -126 -50 -174 -102 -71 -77 -86 -121 -86 -255
0 -134 15 -178 86 -255 138 -149 401 -150 537 -1 72 79 87 122 87 256 0 135
-15 179 -89 258 -84 90 -235 131 -361 99z m200 -136 c49 -22 98 -76 116 -128
21 -61 16 -160 -10 -212 -44 -86 -105 -121 -208 -121 -144 0 -236 89 -237 230
-1 157 86 250 234 250 42 0 79 -7 105 -19z"/>
<path d="M11490 3641 l0 -171 40 0 40 0 0 50 c0 43 3 50 20 50 13 0 31 -18 52
-50 33 -49 33 -50 86 -50 59 0 58 -4 9 69 -29 42 -29 45 -13 71 10 18 16 50
16 87 0 51 -4 63 -25 83 -23 22 -37 25 -125 28 l-100 4 0 -171z"/>
<path d="M40 345 c0 -228 1 -235 20 -235 19 0 20 7 20 235 0 228 -1 235 -20
235 -19 0 -20 -7 -20 -235z"/>
<path d="M220 565 c0 -12 16 -15 85 -15 l85 0 0 -220 c0 -213 1 -220 20 -220
19 0 20 7 20 220 l0 220 85 0 c69 0 85 3 85 15 0 13 -28 15 -190 15 -162 0
-190 -2 -190 -15z"/>
<path d="M1040 345 c0 -227 1 -235 20 -235 19 0 20 8 22 185 l3 186 90 -156
c59 -101 95 -154 105 -153 8 2 55 74 105 160 l90 156 3 -189 c2 -181 3 -189
22 -189 19 0 20 8 20 235 0 303 0 303 -136 65 -53 -94 -100 -172 -103 -174 -4
-3 -51 74 -106 170 -136 239 -135 240 -135 -61z"/>
<path d="M1769 354 c-57 -125 -105 -230 -107 -235 -2 -5 7 -9 21 -9 21 0 29
10 52 65 l28 65 132 0 132 0 28 -65 c23 -55 31 -65 52 -65 14 0 23 4 21 9 -1
5 -50 110 -107 235 -90 195 -107 226 -126 226 -19 0 -36 -31 -126 -226z m129
-82 c-61 -1 -112 -1 -114 1 -2 2 22 60 53 129 l57 125 58 -126 57 -126 -111
-3z"/>
<path d="M2270 345 c0 -227 1 -235 20 -235 19 0 20 8 22 192 l3 193 150 -192
c114 -147 155 -192 173 -193 l22 0 0 235 0 235 -25 0 -25 0 -2 -192 -3 -193
-149 193 c-97 125 -156 192 -168 192 -17 0 -18 -14 -18 -235z"/>
<path d="M2909 354 c-57 -125 -105 -230 -107 -235 -2 -5 7 -9 21 -9 21 0 29
10 52 65 l28 65 132 0 132 0 28 -65 c23 -55 31 -65 52 -65 14 0 23 4 21 9 -1
5 -50 110 -107 235 -90 195 -107 226 -126 226 -19 0 -36 -31 -126 -226z m129
-82 c-61 -1 -112 -1 -114 1 -2 2 22 60 53 129 l57 125 58 -126 57 -126 -111
-3z"/>
<path d="M3480 553 c-171 -87 -171 -329 0 -416 49 -25 64 -28 130 -25 52 2 88
10 115 24 l40 21 3 96 c3 92 2 97 -18 97 -19 0 -20 -6 -20 -85 0 -82 -1 -85
-27 -99 -70 -35 -157 -29 -224 17 -106 72 -106 252 0 324 74 50 170 52 238 6
28 -19 38 -22 44 -11 13 20 6 30 -37 52 -26 14 -63 22 -114 24 -66 3 -81 0
-130 -25z"/>
<path d="M3980 345 l0 -235 165 0 c140 0 165 2 165 15 0 13 -23 15 -145 15
l-145 0 0 95 0 95 125 0 c104 0 125 2 125 15 0 13 -21 15 -125 15 l-125 0 0
95 0 95 140 0 c118 0 140 2 140 15 0 13 -24 15 -160 15 l-160 0 0 -235z"/>
<path d="M4490 345 c0 -227 1 -235 20 -235 19 0 20 8 22 185 l3 186 90 -156
c59 -101 95 -154 105 -153 8 2 55 74 105 160 l90 156 3 -189 c2 -181 3 -189
22 -189 19 0 20 8 20 235 0 303 0 303 -136 65 -53 -94 -100 -172 -103 -174 -4
-3 -51 74 -106 170 -136 239 -135 240 -135 -61z"/>
<path d="M5190 345 l0 -235 165 0 c140 0 165 2 165 15 0 13 -23 15 -145 15
l-145 0 0 95 0 95 125 0 c104 0 125 2 125 15 0 13 -21 15 -125 15 l-125 0 0
95 0 95 140 0 c118 0 140 2 140 15 0 13 -24 15 -160 15 l-160 0 0 -235z"/>
<path d="M5700 345 c0 -227 1 -235 20 -235 19 0 20 8 22 192 l3 193 150 -192
c114 -147 155 -192 173 -193 l22 0 0 235 0 235 -25 0 -25 0 -2 -192 -3 -193
-149 193 c-97 125 -156 192 -168 192 -17 0 -18 -14 -18 -235z"/>
<path d="M6230 565 c0 -12 16 -15 85 -15 l85 0 0 -220 c0 -213 1 -220 20 -220
19 0 20 7 20 220 l0 220 85 0 c69 0 85 3 85 15 0 13 -28 15 -190 15 -162 0
-190 -2 -190 -15z"/>
<path d="M7129 553 c-38 -20 -63 -42 -86 -76 -108 -162 5 -367 204 -367 93 0
188 45 162 76 -9 11 -19 9 -53 -10 -77 -45 -153 -43 -227 7 -106 72 -106 252
0 324 74 50 150 52 227 7 34 -19 44 -21 53 -10 26 31 -69 76 -162 76 -49 0
-75 -6 -118 -27z"/>
<path d="M7659 553 c-125 -64 -165 -222 -85 -342 66 -98 211 -131 325 -75 170
85 170 333 0 418 -75 37 -164 37 -240 -1z m230 -41 c64 -39 94 -99 89 -178
-10 -164 -180 -245 -319 -151 -102 69 -107 246 -8 319 72 54 162 58 238 10z"/>
<path d="M8200 345 c0 -227 1 -235 20 -235 19 0 20 8 22 192 l3 193 150 -192
c114 -147 155 -192 173 -193 l22 0 0 235 0 235 -25 0 -25 0 -2 -192 -3 -193
-149 193 c-97 125 -156 192 -168 192 -17 0 -18 -14 -18 -235z"/>
<path d="M8843 565 c-38 -16 -62 -50 -69 -96 -10 -69 32 -107 153 -142 109
-32 133 -48 133 -93 0 -93 -151 -124 -253 -52 -24 17 -31 18 -38 7 -14 -23
-11 -26 43 -53 68 -34 169 -36 229 -5 75 38 89 136 25 183 -17 13 -68 34 -114
46 -108 29 -134 49 -130 103 2 30 10 45 31 61 40 29 129 29 180 -1 36 -22 37
-22 47 -2 10 17 6 22 -32 39 -51 23 -157 26 -205 5z"/>
<path d="M9260 433 c1 -201 13 -244 83 -297 33 -25 138 -34 191 -16 50 16 92
68 105 130 6 28 11 114 11 190 l0 140 -25 0 -25 0 0 -160 c0 -114 -4 -170 -14
-194 -39 -94 -168 -112 -242 -35 l-29 30 -3 180 -3 179 -25 0 -24 0 0 -147z"/>
<path d="M9870 345 l0 -235 155 0 c131 0 155 2 155 15 0 13 -22 15 -135 15
l-135 0 0 220 c0 213 -1 220 -20 220 -19 0 -20 -7 -20 -235z"/>
<path d="M10200 565 c0 -12 16 -15 85 -15 l85 0 0 -220 c0 -213 1 -220 20
-220 19 0 20 7 20 220 l0 220 85 0 c69 0 85 3 85 15 0 13 -28 15 -190 15 -162
0 -190 -2 -190 -15z"/>
<path d="M10720 345 c0 -228 1 -235 20 -235 19 0 20 7 20 235 0 228 -1 235
-20 235 -19 0 -20 -7 -20 -235z"/>
<path d="M10980 345 c0 -227 1 -235 20 -235 19 0 20 8 22 192 l3 193 150 -192
c114 -147 155 -192 173 -193 l22 0 0 235 0 235 -25 0 -25 0 -2 -192 -3 -193
-149 193 c-97 125 -156 192 -168 192 -17 0 -18 -14 -18 -235z"/>
<path d="M11660 553 c-171 -87 -171 -329 0 -416 49 -25 64 -28 130 -25 52 2
88 10 115 24 l40 21 3 96 c3 92 2 97 -18 97 -19 0 -20 -6 -20 -85 0 -82 -1
-85 -27 -99 -70 -35 -157 -29 -224 17 -106 72 -106 252 0 324 74 50 170 52
238 6 28 -19 38 -22 44 -11 13 20 6 30 -37 52 -26 14 -63 22 -114 24 -66 3
-81 0 -130 -25z"/>
</g>
</svg>
